<svg width="20" height="20" viewBox="0 0 20 20" fill="none" xmlns="http://www.w3.org/2000/svg">
<path d="M14.8338 5.6394H15.7263M4.57 1.06494H15.28C17.2517 1.06494 18.85 2.70338 18.85 4.7245V15.7032C18.85 17.7243 17.2517 19.3628 15.28 19.3628H4.57C2.59834 19.3628 1 17.7243 1 15.7032V4.7245C1 2.70338 2.59834 1.06494 4.57 1.06494ZM9.925 13.8734C7.95334 13.8734 6.355 12.235 6.355 10.2138C6.355 8.19273 7.95334 6.55429 9.925 6.55429C11.8967 6.55429 13.495 8.19273 13.495 10.2138C13.495 12.235 11.8967 13.8734 9.925 13.8734Z" stroke="#12F3D8"/>
</svg>
