<svg width="20" height="21" viewBox="0 0 20 21" fill="none" xmlns="http://www.w3.org/2000/svg">
<path d="M3.24974 16.0624L3.69821 16.2834L3.83307 16.0099L3.65153 15.7648L3.24974 16.0624ZM5.04948 17.8878L5.35252 17.4901L5.10305 17.3L4.82333 17.4418L5.04948 17.8878ZM1.45 19.7132L1.00153 19.4921C0.906367 19.6852 0.945409 19.9174 1.09845 20.0687C1.2515 20.2201 1.4842 20.2565 1.67614 20.1591L1.45 19.7132ZM6.85 6.93346L6.54728 6.53552C6.42298 6.63007 6.35 6.77728 6.35 6.93346H6.85ZM14.05 14.2362V14.7362C14.1987 14.7362 14.3397 14.67 14.4347 14.5556L14.05 14.2362ZM7.40931 6.508L7.10659 6.11005L7.40931 6.508ZM8.84236 7.12504L8.34611 7.1862L8.84236 7.12504ZM9.0454 8.77255L9.54165 8.71139L9.0454 8.77255ZM8.78875 9.53125L8.4327 9.18021H8.4327L8.78875 9.53125ZM14.449 13.7556L14.0643 13.4362L14.449 13.7556ZM13.8909 12.2644L13.9643 11.7698L13.8909 12.2644ZM12.2472 12.0204L12.3206 11.5259L12.2472 12.0204ZM11.4804 12.2782L11.8365 12.6292H11.8365L11.4804 12.2782ZM0.950008 10.5848C0.950008 12.7503 1.65593 14.7506 2.84795 16.36L3.65153 15.7648C2.58339 14.3227 1.95001 12.5298 1.95001 10.5848H0.950008ZM10.45 0.956421C5.19665 0.956421 0.950008 5.2739 0.950008 10.5848H1.95001C1.95001 5.81278 5.76224 1.95642 10.45 1.95642V0.956421ZM19.95 10.5848C19.95 5.2739 15.7034 0.956421 10.45 0.956421V1.95642C15.1378 1.95642 18.95 5.81278 18.95 10.5848H19.95ZM10.45 20.2132C15.7034 20.2132 19.95 15.8957 19.95 10.5848H18.95C18.95 15.3568 15.1378 19.2132 10.45 19.2132V20.2132ZM4.74644 18.2855C6.33431 19.4954 8.30987 20.2132 10.45 20.2132V19.2132C8.53749 19.2132 6.77321 18.5726 5.35252 17.4901L4.74644 18.2855ZM1.67614 20.1591L5.27563 18.3337L4.82333 17.4418L1.22385 19.2673L1.67614 20.1591ZM2.80127 15.8413L1.00153 19.4921L1.89846 19.9343L3.69821 16.2834L2.80127 15.8413ZM6.35 6.93346V7.8463H7.35V6.93346H6.35ZM13.15 14.7362H14.05V13.7362H13.15V14.7362ZM6.35 7.8463C6.35 11.6448 9.38781 14.7362 13.15 14.7362V13.7362C9.9534 13.7362 7.35 11.1059 7.35 7.8463H6.35ZM7.15271 7.33141L7.71203 6.90594L7.10659 6.11005L6.54728 6.53552L7.15271 7.33141ZM8.34611 7.1862L8.54915 8.83371L9.54165 8.71139L9.3386 7.06388L8.34611 7.1862ZM8.4327 9.18021L7.39395 10.2338L8.10605 10.9359L9.14479 9.88229L8.4327 9.18021ZM8.54915 8.83371C8.56507 8.96284 8.52099 9.09066 8.4327 9.18021L9.14479 9.88229C9.44928 9.57346 9.59463 9.1413 9.54165 8.71139L8.54915 8.83371ZM7.71203 6.90594C7.94965 6.72518 8.30633 6.86343 8.34611 7.1862L9.3386 7.06388C9.20695 5.99568 7.97463 5.44973 7.10659 6.11005L7.71203 6.90594ZM14.4347 14.5556L14.8337 14.075L14.0643 13.4362L13.6653 13.9168L14.4347 14.5556ZM13.9643 11.7698L12.3206 11.5259L12.1737 12.515L13.8175 12.759L13.9643 11.7698ZM11.1244 11.9271L10.0939 12.9723L10.806 13.6744L11.8365 12.6292L11.1244 11.9271ZM12.3206 11.5259C11.8801 11.4605 11.4366 11.6105 11.1244 11.9271L11.8365 12.6292C11.9264 12.538 12.0515 12.4969 12.1737 12.515L12.3206 11.5259ZM14.8337 14.075C15.5307 13.2354 15.0573 11.9321 13.9643 11.7698L13.8175 12.759C14.1201 12.8039 14.2758 13.1815 14.0643 13.4362L14.8337 14.075Z" fill="#12F3D8"/>
</svg>
